# xmcd
#
# Track frame offsets:
# 150
# 17770
# 29721
# 38462
# 52478
# 73341
# 84194
# 94759
# 113304
# 124820
# 135485
# 146973
# 159225
# 170376
# 182538
# 192870
# 216899
# 228487
# 246243
# 256881
# 276609
# 292270
# 303145
# 314800
#
# Disc length: 4356 seconds
#
#
# Revision: 0
# Processed by: cddbd v1.5.1PL0 Copyright (c) Steve Scherf et al.
# Submitted via: FreeRIP 2.52 
#
DISCID=67110218
DTITLE=Pappo Napolitano - PAPPO Grandes Exitos
DYEAR=2005
DGENRE=Blues
TTITLE0=Rock and roll y fiebre
TTITLE1=Mi vieja
TTITLE2=Auto rojo
TTITLE3=Ruta 66
TTITLE4=Blues para santa fe
TTITLE5=Cissy Strut
TTITLE6=El hombre suburbano
TTITLE7=Cruzando america en un taxi
TTITLE8=Ella es un angel
TTITLE9=La isola
TTITLE10=Fiesta cervezal
TTITLE11=El viejo
TTITLE12=El sur de la ciudad
TTITLE13=Desconfio de la vida
TTITLE14=El brujo
TTITLE15=Side blues
TTITLE16=Mi Vieja
TTITLE17=Insoluble
TTITLE18=Pajaro metalico
TTITLE19=Algo ha cambiado
TTITLE20=Solitario juan
TTITLE21=blues local
TTITLE22=Tren de las 16
TTITLE23=Desconfio de la vida
EXTD=
EXTT0=
EXTT1=
EXTT2=
EXTT3=
EXTT4=
EXTT5=
EXTT6=
EXTT7=
EXTT8=
EXTT9=
EXTT10=
EXTT11=
EXTT12=
EXTT13=
EXTT14=
EXTT15=
EXTT16=
EXTT17=
EXTT18=
EXTT19=
EXTT20=
EXTT21=
EXTT22=
EXTT23=
PLAYORDER=
